# xmcd
#
# Track frame offsets:
#	150
#	11289
#	23644
#	36857
#	57064
#	68951
#	69401
#	81860
#	93632
#	105727
#	121358
#	132205
#	148772
#	160399
#	170570
#	179623
#	188858
#	201057
#
# Disc length: 2791 seconds
#
# Revision: 0
# Processed by: cddbd v1.5.2PL0 Copyright (c) Steve Scherf et al.
# Submitted via: dBpowerAMP V4.0
#
DISCID=fb0ae512
DTITLE=Various Artist - Country Forever
DYEAR=2001
DGENRE=Country
TTITLE0=Buck Owens - Down On The Corner Of Love
TTITLE1=Lynn Anderson - Stand By Your Man
TTITLE2=George Jones - Seasons Of My Heart
TTITLE3=Glen Campbell - Amazing Grace
TTITLE4=Gene Autry - Dixie Cannon Ball
TTITLE5=Unknown - Unknown
TTITLE6=Bobby Bare - Music City USA
TTITLE7=Patsy Cline - Let The Teardrops Fall
TTITLE8=Clifford James - Sing A Travelling Song
TTITLE9=Cash McCall - Across The Wide Missouri
TTITLE10=Johnny Paycheck - Heartbreak Tennessee
TTITLE11=Diana Trask - Behind Closed Doors
TTITLE12=Tommy Overstreet - Welcome To My World
TTITLE13=Roy Clarke - Back In The Race
TTITLE14=Justin Tubb - Five Minutes Of the Latest Blues
TTITLE15=Conway Twitty - This Road That I Walk
TTITLE16=Willie Nelson - Shelter In My Arms
TTITLE17=Waylon Jennings - Abilene
EXTD=
EXTT0=
EXTT1=
EXTT2=
EXTT3=
EXTT4=
EXTT5=
EXTT6=
EXTT7=
EXTT8=
EXTT9=
EXTT10=
EXTT11=
EXTT12=
EXTT13=
EXTT14=
EXTT15=
EXTT16=
EXTT17=
PLAYORDER=
